HIERARCHY
ROOT mixamorig:Hips
{
	OFFSET 0.000000 104.274902 0.000000
	CHANNELS 6 Xposition Yposition Zposition Xrotation Yrotation Zrotation
	JOINT mixamorig:Spine
	{
		OFFSET 0.000000 10.181549 0.131524
		CHANNELS 6 Xposition Yposition Zposition Xrotation Yrotation Zrotation
		JOINT mixamorig:Spine1
		{
			OFFSET 0.000000 9.893990 -1.470706
			CHANNELS 3 Xrotation Yrotation Zrotation
			JOINT mixamorig:Spine2
			{
				OFFSET 0.000000 9.220787 -1.370636
				CHANNELS 3 Xrotation Yrotation Zrotation
				JOINT mixamorig:Neck
				{
					OFFSET 0.000000 16.740372 -2.049023
					CHANNELS 6 Xposition Yposition Zposition Xrotation Yrotation Zrotation
					JOINT mixamorig:Head
					{
						OFFSET 0.000000 9.617859 1.684975
						CHANNELS 6 Xposition Yposition Zposition Xrotation Yrotation Zrotation
						JOINT mixamorig:HeadTop_End
						{
							OFFSET 0.000000 22.037369 7.501070
							CHANNELS 6 Xposition Yposition Zposition Xrotation Yrotation Zrotation
							End Site
							{
								OFFSET 0.000000 23.106567 -2.828246
							}
						}
					}
				}
				JOINT mixamorig:RightShoulder
				{
					OFFSET -4.570000 11.014862 -2.160841
					CHANNELS 6 Xposition Yposition Zposition Xrotation Yrotation Zrotation
					JOINT mixamorig:RightArm
					{
						OFFSET -10.592869 -0.524796 -2.232105
						CHANNELS 3 Xrotation Yrotation Zrotation
						JOINT mixamorig:RightForeArm
						{
							OFFSET -27.841499 0.000000 0.000000
							CHANNELS 3 Xrotation Yrotation Zrotation
							JOINT mixamorig:RightHand
							{
								OFFSET -28.328800 0.000000 0.000000
								CHANNELS 3 Xrotation Yrotation Zrotation
								JOINT mixamorig:RightHandThumb1
								{
									OFFSET -2.464798 -1.573990 2.681910
									CHANNELS 6 Xposition Yposition Zposition Xrotation Yrotation Zrotation
									JOINT mixamorig:RightHandThumb2
									{
										OFFSET -3.244789 -1.873367 1.873378
										CHANNELS 3 Xrotation Yrotation Zrotation
										JOINT mixamorig:RightHandThumb3
										{
											OFFSET -2.646255 -1.527817 1.527816
											CHANNELS 3 Xrotation Yrotation Zrotation
											JOINT mixamorig:RightHandThumb4
											{
												OFFSET -1.994583 -1.151581 1.151575
												CHANNELS 3 Xrotation Yrotation Zrotation
												End Site
												{
													OFFSET -1.860176 -1.142715 1.365483
												}
											}
										}
									}
								}
								JOINT mixamorig:RightHandIndex1
								{
									OFFSET -9.108299 -0.517883 2.259803
									CHANNELS 6 Xposition Yposition Zposition Xrotation Yrotation Zrotation
									JOINT mixamorig:RightHandIndex2
									{
										OFFSET -3.700005 0.000000 0.000000
										CHANNELS 3 Xrotation Yrotation Zrotation
										JOINT mixamorig:RightHandIndex3
										{
											OFFSET -2.849998 0.000000 0.000000
											CHANNELS 3 Xrotation Yrotation Zrotation
											JOINT mixamorig:RightHandIndex4
											{
												OFFSET -2.772202 0.000000 0.000000
												CHANNELS 3 Xrotation Yrotation Zrotation
												End Site
												{
													OFFSET -2.772202 0.000000 -0.000484
												}
											}
										}
									}
								}
								JOINT mixamorig:RightHandMiddle1
								{
									OFFSET -9.532501 0.000000 0.000000
									CHANNELS 6 Xposition Yposition Zposition Xrotation Yrotation Zrotation
									JOINT mixamorig:RightHandMiddle2
									{
										OFFSET -3.699997 0.000000 0.000000
										CHANNELS 3 Xrotation Yrotation Zrotation
										JOINT mixamorig:RightHandMiddle3
										{
											OFFSET -2.950005 0.000000 0.000000
											CHANNELS 3 Xrotation Yrotation Zrotation
											JOINT mixamorig:RightHandMiddle4
											{
												OFFSET -2.946602 0.000000 0.000000
												CHANNELS 3 Xrotation Yrotation Zrotation
												End Site
												{
													OFFSET -2.946594 0.000000 -0.000982
												}
											}
										}
									}
								}
								JOINT mixamorig:RightHandRing1
								{
									OFFSET -9.103600 -0.043106 -1.865100
									CHANNELS 6 Xposition Yposition Zposition Xrotation Yrotation Zrotation
									JOINT mixamorig:RightHandRing2
									{
										OFFSET -3.379303 0.000000 0.000000
										CHANNELS 3 Xrotation Yrotation Zrotation
										JOINT mixamorig:RightHandRing3
										{
											OFFSET -2.889702 0.000000 0.000000
											CHANNELS 3 Xrotation Yrotation Zrotation
											JOINT mixamorig:RightHandRing4
											{
												OFFSET -2.638794 0.000000 0.000000
												CHANNELS 3 Xrotation Yrotation Zrotation
												End Site
												{
													OFFSET -2.638794 0.000000 0.004219
												}
											}
										}
									}
								}
								JOINT mixamorig:RightHandPinky1
								{
									OFFSET -8.076698 -0.486725 -3.806297
									CHANNELS 6 Xposition Yposition Zposition Xrotation Yrotation Zrotation
									JOINT mixamorig:RightHandPinky2
									{
										OFFSET -3.600006 0.000000 0.000000
										CHANNELS 3 Xrotation Yrotation Zrotation
										JOINT mixamorig:RightHandPinky3
										{
											OFFSET -2.099998 0.000000 0.000000
											CHANNELS 3 Xrotation Yrotation Zrotation
											JOINT mixamorig:RightHandPinky4
											{
												OFFSET -2.115799 0.000000 0.000000
												CHANNELS 3 Xrotation Yrotation Zrotation
												End Site
												{
													OFFSET -2.115799 0.000000 0.000174
												}
											}
										}
									}
								}
							}
						}
					}
				}
				JOINT mixamorig:LeftShoulder
				{
					OFFSET 4.570400 11.014664 -2.160817
					CHANNELS 6 Xposition Yposition Zposition Xrotation Yrotation Zrotation
					JOINT mixamorig:LeftArm
					{
						OFFSET 10.592365 -0.524597 -2.232113
						CHANNELS 3 Xrotation Yrotation Zrotation
						JOINT mixamorig:LeftForeArm
						{
							OFFSET 27.841499 0.000000 0.000000
							CHANNELS 3 Xrotation Yrotation Zrotation
							JOINT mixamorig:LeftHand
							{
								OFFSET 28.328804 0.000000 0.000000
								CHANNELS 3 Xrotation Yrotation Zrotation
								JOINT mixamorig:LeftHandThumb1
								{
									OFFSET 2.466095 -1.576202 2.681697
									CHANNELS 6 Xposition Yposition Zposition Xrotation Yrotation Zrotation
									JOINT mixamorig:LeftHandThumb2
									{
										OFFSET 3.243317 -1.872528 1.872528
										CHANNELS 3 Xrotation Yrotation Zrotation
										JOINT mixamorig:LeftHandThumb3
										{
											OFFSET 2.647881 -1.528763 1.528755
											CHANNELS 3 Xrotation Yrotation Zrotation
											JOINT mixamorig:LeftHandThumb4
											{
												OFFSET 1.998924 -1.154068 1.154079
												CHANNELS 3 Xrotation Yrotation Zrotation
												End Site
												{
													OFFSET 1.884041 -1.149155 1.337651
												}
											}
										}
									}
								}
								JOINT mixamorig:LeftHandIndex1
								{
									OFFSET 9.109299 -0.518005 2.259899
									CHANNELS 6 Xposition Yposition Zposition Xrotation Yrotation Zrotation
									JOINT mixamorig:LeftHandIndex2
									{
										OFFSET 3.699997 0.000000 0.000000
										CHANNELS 3 Xrotation Yrotation Zrotation
										JOINT mixamorig:LeftHandIndex3
										{
											OFFSET 2.849998 0.000000 0.000000
											CHANNELS 3 Xrotation Yrotation Zrotation
											JOINT mixamorig:LeftHandIndex4
											{
												OFFSET 2.774902 0.000000 0.000000
												CHANNELS 3 Xrotation Yrotation Zrotation
												End Site
												{
													OFFSET 2.774902 0.000000 -0.000072
												}
											}
										}
									}
								}
								JOINT mixamorig:LeftHandMiddle1
								{
									OFFSET 9.533394 0.000000 0.000000
									CHANNELS 6 Xposition Yposition Zposition Xrotation Yrotation Zrotation
									JOINT mixamorig:LeftHandMiddle2
									{
										OFFSET 3.700005 0.000000 0.000000
										CHANNELS 3 Xrotation Yrotation Zrotation
										JOINT mixamorig:LeftHandMiddle3
										{
											OFFSET 2.949997 0.000000 0.000000
											CHANNELS 3 Xrotation Yrotation Zrotation
											JOINT mixamorig:LeftHandMiddle4
											{
												OFFSET 2.952904 0.000000 0.000000
												CHANNELS 3 Xrotation Yrotation Zrotation
												End Site
												{
													OFFSET 2.952896 0.000000 0.000165
												}
											}
										}
									}
								}
								JOINT mixamorig:LeftHandRing1
								{
									OFFSET 9.104500 -0.042999 -1.865100
									CHANNELS 6 Xposition Yposition Zposition Xrotation Yrotation Zrotation
									JOINT mixamorig:LeftHandRing2
									{
										OFFSET 3.149994 0.000000 0.000000
										CHANNELS 3 Xrotation Yrotation Zrotation
										JOINT mixamorig:LeftHandRing3
										{
											OFFSET 2.950005 0.000000 0.000000
											CHANNELS 3 Xrotation Yrotation Zrotation
											JOINT mixamorig:LeftHandRing4
											{
												OFFSET 2.644295 0.000000 0.000000
												CHANNELS 3 Xrotation Yrotation Zrotation
												End Site
												{
													OFFSET 2.644302 0.000000 0.000083
												}
											}
										}
									}
								}
								JOINT mixamorig:LeftHandPinky1
								{
									OFFSET 8.077797 -0.486893 -3.806301
									CHANNELS 6 Xposition Yposition Zposition Xrotation Yrotation Zrotation
									JOINT mixamorig:LeftHandPinky2
									{
										OFFSET 3.599998 0.000000 0.000000
										CHANNELS 3 Xrotation Yrotation Zrotation
										JOINT mixamorig:LeftHandPinky3
										{
											OFFSET 2.099998 0.000000 0.000000
											CHANNELS 3 Xrotation Yrotation Zrotation
											JOINT mixamorig:LeftHandPinky4
											{
												OFFSET 2.125504 0.000000 0.000000
												CHANNELS 3 Xrotation Yrotation Zrotation
												End Site
												{
													OFFSET 2.125504 0.000000 -0.001254
												}
											}
										}
									}
								}
							}
						}
					}
				}
			}
		}
	}
	JOINT mixamorig:RightUpLeg
	{
		OFFSET -8.207800 -6.751701 -1.599544
		CHANNELS 6 Xposition Yposition Zposition Xrotation Yrotation Zrotation
		JOINT mixamorig:RightLeg
		{
			OFFSET 0.000000 -44.370155 0.345934
			CHANNELS 3 Xrotation Yrotation Zrotation
			JOINT mixamorig:RightFoot
			{
				OFFSET 0.000000 -44.423664 -3.043536
				CHANNELS 3 Xrotation Yrotation Zrotation
				JOINT mixamorig:RightToeBase
				{
					OFFSET 0.000000 -8.728685 10.710592
					CHANNELS 3 Xrotation Yrotation Zrotation
					JOINT mixamorig:RightToe_End
					{
						OFFSET 0.000000 -0.000664 9.278099
						CHANNELS 3 Xrotation Yrotation Zrotation
						End Site
						{
							OFFSET 0.000000 -0.000664 9.278101
						}
					}
				}
			}
		}
	}
	JOINT mixamorig:LeftUpLeg
	{
		OFFSET 8.207800 -6.751701 -1.599544
		CHANNELS 6 Xposition Yposition Zposition Xrotation Yrotation Zrotation
		JOINT mixamorig:LeftLeg
		{
			OFFSET 0.000000 -44.370049 0.346940
			CHANNELS 3 Xrotation Yrotation Zrotation
			JOINT mixamorig:LeftFoot
			{
				OFFSET 0.000000 -44.423603 -3.044389
				CHANNELS 3 Xrotation Yrotation Zrotation
				JOINT mixamorig:LeftToeBase
				{
					OFFSET 0.000000 -8.728686 10.710592
					CHANNELS 3 Xrotation Yrotation Zrotation
					JOINT mixamorig:LeftToe_End
					{
						OFFSET 0.000000 -0.000680 9.278100
						CHANNELS 3 Xrotation Yrotation Zrotation
						End Site
						{
							OFFSET 0.000000 -0.000680 9.278100
						}
					}
				}
			}
		}
	}
}
MOTION
Frames: 4
Frame Time: 0.033333
-0.370394 102.426140 2.006855 -2.453784 -8.399687 -1.643777 -0.000000 10.181544 0.131525 2.434409 2.450994 2.791042 0.205626 0.337205 -1.683445 0.214787 0.328719 -1.683991 0.000001 16.740335 -2.049019 3.116279 -0.804270 2.327668 0.000000 9.617838 1.684974 11.965148 -0.693036 0.065032 -0.000000 22.037415 7.501072 -0.000000 0.000000 0.000000 -4.570000 11.014834 -2.160839 1.158613 10.694868 0.734648 -0.408599 2.056300 -1.347426 0.000000 1.413021 0.000008 0.260228 -3.601041 9.031900 -2.464803 -1.573976 2.681910 -2.032669 -12.088964 -7.927929 5.749276 -21.267913 -1.054456 -1.273750 0.137304 -2.094866 -0.000002 -0.000001 0.000002 -9.108294 -0.517851 2.259803 0.322133 -2.095761 17.474469 0.276359 -1.944510 16.176145 0.146963 -1.424855 11.776955 0.000000 0.000000 0.000001 -9.532497 0.000033 -0.000002 0.300946 -2.027308 16.885671 0.422068 -2.389915 20.027559 0.333512 -2.131579 17.783173 0.000000 -0.000000 -0.000001 -9.103601 -0.043094 -1.865103 0.431365 -2.415255 20.249402 0.669815 -2.982449 25.310248 0.620890 -2.876867 24.353069 -0.000000 0.000000 -0.000001 -8.076704 -0.486718 -3.806301 0.830783 -3.300926 28.246638 1.000364 -3.598234 31.064455 0.912345 -3.448176 29.632117 0.000000 0.000000 0.000000 4.570400 11.014636 -2.160814 -0.330933 5.900068 1.561865 16.528243 -8.922893 6.599315 0.000003 -7.696121 0.000014 -2.511693 19.619360 -11.091070 2.466092 -1.576196 2.681693 -2.107743 4.876290 12.292417 4.685177 17.127434 1.425220 -0.579462 1.575005 2.538715 -0.000000 0.000004 -0.000001 9.109301 -0.518015 2.259897 0.055482 0.874241 -7.264161 0.032114 0.665624 -5.524329 0.023972 0.575403 -4.773593 -0.000001 0.000001 0.000000 9.533394 0.000024 -0.000002 0.121072 1.288213 -10.738978 0.131973 1.344419 -11.213727 0.124577 1.306597 -10.894159 -0.000002 -0.000002 0.000003 9.104502 -0.042997 -1.865099 0.295857 2.000545 -16.824402 0.345983 2.159251 -18.205422 0.351709 2.176635 -18.357223 -0.000001 -0.000000 0.000004 8.077813 -0.486889 -3.806303 2.553122 6.731463 -26.341743 0.619273 -1.215472 -24.775722 0.619795 2.859868 -24.452839 -0.000000 -0.000002 -0.000000 -8.207800 -6.751701 -1.599542 -6.097127 -2.138505 -2.120425 18.468791 -9.119751 -1.399770 -8.561698 -7.070579 3.839964 -0.017910 0.000001 0.000001 0.000000 0.000001 0.000000 8.207799 -6.751697 -1.599543 -6.487969 17.417476 8.061098 19.507567 10.123377 -0.643065 -9.573412 9.518829 -5.462732 -0.000020 -0.000005 -0.000005 0.000000 -0.000002 0.000000 
-0.162679 102.733665 2.027094 -1.989664 -8.187126 -1.434521 -0.000000 10.181569 0.131524 1.970601 2.073463 2.897244 0.088674 0.285893 -1.793898 0.096881 0.279010 -1.794571 0.000001 16.740316 -2.049020 3.146038 -0.800465 2.367718 0.000000 9.617826 1.684977 11.950828 -0.634012 0.131346 -0.000000 22.037384 7.501070 0.000001 -0.000000 -0.000000 -4.570000 11.014811 -2.160841 1.200989 11.258464 0.768198 -0.021339 1.821997 -1.770178 -0.000003 1.182480 0.000006 0.772415 -0.800299 10.285089 -2.464791 -1.573954 2.681906 -2.032671 -12.088965 -7.927929 5.749276 -21.267918 -1.054458 -1.273749 0.137307 -2.094866 -0.000004 -0.000000 -0.000001 -9.108293 -0.517849 2.259802 0.312956 -2.066425 17.221875 0.269501 -1.920761 15.973000 0.140172 -1.391880 11.500564 -0.000001 0.000001 0.000002 -9.532494 0.000035 -0.000001 0.293272 -2.001875 16.667408 0.414199 -2.368241 19.837953 0.324727 -2.103985 17.545330 0.000000 0.000000 0.000000 -9.103599 -0.043081 -1.865102 0.421533 -2.388459 20.014718 0.660877 -2.963511 25.138016 0.610564 -2.853940 24.146285 0.000000 -0.000002 -0.000001 -8.076696 -0.486707 -3.806299 0.813292 -3.268214 27.941279 0.991741 -3.583908 30.926799 0.901103 -3.428378 29.444775 -0.000000 -0.000001 0.000001 4.570399 11.014646 -2.160816 -0.296578 5.570429 1.536769 16.630703 -8.452626 6.285324 0.000006 -7.100340 0.000007 -2.666372 19.284272 -11.351884 2.466092 -1.576213 2.681694 -2.107743 4.876293 12.292417 4.685178 17.127434 1.425217 -0.579465 1.575003 2.538712 -0.000000 -0.000000 0.000003 9.109295 -0.518005 2.259897 0.068542 0.971254 -8.075475 0.038833 0.731790 -6.075520 0.028200 0.623805 -5.176323 -0.000001 -0.000001 -0.000000 9.533400 0.000019 -0.000002 0.136434 1.366720 -11.402232 0.143127 1.399522 -11.679750 0.132379 1.346490 -11.231166 0.000000 0.000001 0.000005 9.104508 -0.042984 -1.865101 0.319643 2.077544 -17.492997 0.358680 2.197477 -18.539671 0.359930 2.201241 -18.572493 0.000001 0.000000 -0.000000 8.077794 -0.486897 -3.806303 2.651573 6.793584 -27.177871 0.625656 -1.201688 -24.901408 0.624394 2.869968 -24.545014 0.000000 -0.000002 0.000001 -8.207802 -6.751702 -1.599544 -5.473296 -2.899906 -2.739495 16.249949 -9.241832 -0.903028 -7.432883 -6.467621 3.926550 -0.015220 0.000000 -0.000002 0.000000 -0.000001 -0.000000 8.207801 -6.751694 -1.599545 -5.787573 16.641882 6.817701 17.309654 9.991753 0.190470 -8.309274 12.209203 -5.466918 0.000004 -0.000009 0.000002 -0.000000 -0.000000 -0.000000 
0.206182 102.913307 1.999993 -1.251800 -7.922324 -1.134024 0.000000 10.181548 0.131524 1.496581 1.540616 3.056045 -0.162059 0.213794 -1.840513 -0.155806 0.209685 -1.841542 -0.000000 16.740376 -2.049024 3.101092 -0.785964 2.418158 0.000000 9.617836 1.684973 12.148334 -0.412147 -0.259159 0.000000 22.037384 7.501074 0.000001 -0.000000 -0.000000 -4.570002 11.014899 -2.160844 1.289526 12.489125 0.879065 1.635519 0.861715 -3.040403 0.000003 1.085436 -0.000003 2.733641 2.069557 11.262788 -2.464814 -1.573989 2.681907 -2.032668 -12.088964 -7.927927 5.749276 -21.267915 -1.054462 -1.273748 0.137309 -2.094863 -0.000003 0.000003 0.000002 -9.108311 -0.517850 2.259800 0.305493 -2.042237 17.013789 0.262658 -1.896635 15.767080 0.133445 -1.358426 11.220388 0.000000 0.000002 0.000005 -9.532513 0.000020 -0.000003 0.286525 -1.979219 16.473129 0.406149 -2.345853 19.642451 0.315502 -2.074597 17.292203 -0.000000 0.000001 0.000004 -9.103601 -0.043088 -1.865102 0.412166 -2.362618 19.788825 0.651031 -2.942462 24.946822 0.598751 -2.827484 23.907914 -0.000000 0.000001 0.000000 -8.076709 -0.486728 -3.806298 0.795736 -3.234954 27.631751 0.980945 -3.565874 30.753712 0.887069 -3.403443 29.209229 0.000001 -0.000000 0.000001 4.570400 11.014691 -2.160819 -0.260983 5.210303 1.532925 17.068218 -7.933244 5.518386 -0.000008 -6.755611 0.000008 -2.490942 19.470964 -12.228580 2.466086 -1.576211 2.681695 -2.107746 4.876294 12.292415 4.685177 17.127430 1.425218 -0.579463 1.575003 2.538717 0.000003 0.000007 0.000004 9.109296 -0.518009 2.259902 0.081383 1.057753 -8.800404 0.047169 0.806330 -6.697173 0.033354 0.678381 -5.630582 0.000000 0.000001 0.000004 9.533395 0.000018 -0.000002 0.152147 1.442428 -12.043351 0.157311 1.466404 -12.246700 0.142739 1.397641 -11.663900 -0.000001 -0.000003 0.000002 9.104498 -0.043000 -1.865100 0.345754 2.158585 -18.199584 0.378351 2.255254 -19.046029 0.374222 2.243236 -18.940618 -0.000001 0.000000 0.000002 8.077806 -0.486899 -3.806300 2.763720 6.861922 -28.121195 0.645487 -1.159347 -25.288381 0.638679 2.901014 -24.828798 -0.000000 0.000000 -0.000000 -8.207800 -6.751705 -1.599543 -5.510809 -3.786312 -3.556534 14.651244 -9.338571 -0.334701 -6.501195 -5.900742 4.202047 -0.011602 0.000006 -0.000001 -0.000000 0.000001 0.000000 8.207802 -6.751688 -1.599544 -5.806877 15.859429 5.707744 16.028781 9.894281 0.851008 -7.681549 17.244515 -5.376121 0.000009 0.000007 0.000001 0.000000 -0.000000 0.000000 
0.711640 103.048897 1.867249 -0.621969 -7.866020 -0.918388 0.000000 10.181557 0.131523 1.542538 1.140295 3.327893 -0.473631 0.160224 -1.807352 -0.469076 0.158006 -1.808749 0.000001 16.740351 -2.049022 2.803695 -0.797455 2.565216 -0.000000 9.617824 1.684978 12.474718 -0.077955 -1.101255 -0.000000 22.037369 7.501067 0.000001 0.000000 -0.000000 -4.569999 11.014852 -2.160841 1.406588 14.274902 1.119132 4.212610 -0.803292 -4.696267 0.000003 1.167480 0.000003 6.261195 3.651224 11.572173 -2.464797 -1.573988 2.681911 -2.032668 -12.088964 -7.927925 5.749275 -21.267918 -1.054463 -1.273751 0.137309 -2.094866 -0.000001 0.000001 0.000000 -9.108294 -0.517850 2.259804 0.302873 -2.033626 16.939950 0.259940 -1.887039 15.685162 0.130813 -1.345111 11.108972 -0.000002 0.000002 0.000005 -9.532491 0.000011 0.000005 0.284036 -1.970770 16.400884 0.402905 -2.336735 19.562936 0.311704 -2.062431 17.187548 0.000002 -0.000002 -0.000002 -9.103585 -0.043080 -1.865098 0.408554 -2.352589 19.701223 0.646842 -2.933451 24.865128 0.593626 -2.815907 23.803817 0.000001 -0.000003 -0.000001 -8.076690 -0.486702 -3.806296 0.788797 -3.221693 27.508631 0.975996 -3.557558 30.674096 0.880652 -3.391959 29.100882 -0.000000 -0.000001 0.000000 4.570400 11.014646 -2.160815 -0.235240 4.945852 1.535187 18.184067 -7.560136 4.724055 -0.000001 -7.094004 0.000008 -1.418939 20.513691 -14.686848 2.466094 -1.576198 2.681697 -2.107744 4.876292 12.292416 4.685176 17.127432 1.425218 -0.579459 1.575003 2.538711 0.000001 0.000001 0.000003 9.109300 -0.518011 2.259903 0.095975 1.148060 -9.558655 0.054081 0.863100 -7.171156 0.037575 0.719963 -5.976911 0.000000 -0.000001 0.000005 9.533402 0.000022 0.000004 0.167732 1.513647 -12.647823 0.168968 1.519047 -12.693702 0.150835 1.436320 -11.991504 0.000000 -0.000000 -0.000003 9.104505 -0.043005 -1.865099 0.368323 2.226049 -18.789784 0.393463 2.298478 -19.426067 0.384775 2.273780 -19.208720 0.000000 0.000000 -0.000006 8.077786 -0.486892 -3.806302 2.849989 6.912802 -28.840542 0.659355 -1.130191 -25.555658 0.648635 2.922405 -25.024818 -0.000001 0.000001 0.000000 -8.207800 -6.751709 -1.599544 -5.717500 -4.437436 -4.157755 13.343823 -9.377376 -0.027837 -5.582484 -5.547131 4.383377 -0.007294 0.000013 -0.000000 0.000000 0.000001 0.000000 8.207799 -6.751687 -1.599544 -5.971361 15.855659 5.371209 15.200683 9.790502 0.530865 -7.197617 23.683432 -4.889866 0.000001 -0.000001 -0.000005 0.000000 -0.000005 -0.000000 
